<svg height="1374" width="720" xmlns="http://www.w3.org/2000/svg">
<rect height="1374" fill="#555" width="720"></rect>
<text fill="#7f7" font-family="Courier New" font-size="12" xml:space="preserve">
<tspan x="10" y="26">33 megabytes</tspan>
<tspan x="10" y="42">├── UNMET PEER DEPENDENCY mocha@*</tspan>
<tspan x="10" y="58">└─┬ mochawesome@2.0.4 </tspan>
<tspan x="10" y="74">  ├─┬ babel-runtime@6.23.0 </tspan>
<tspan x="10" y="90">  │ ├── core-js@2.4.1 </tspan>
<tspan x="10" y="106">  │ └── regenerator-runtime@0.10.3 </tspan>
<tspan x="10" y="122">  ├─┬ chalk@1.1.3 </tspan>
<tspan x="10" y="138">  │ ├── ansi-styles@2.2.1 </tspan>
<tspan x="10" y="154">  │ ├── escape-string-regexp@1.0.5 </tspan>
<tspan x="10" y="170">  │ ├─┬ has-ansi@2.0.0 </tspan>
<tspan x="10" y="186">  │ │ └── ansi-regex@2.1.1 </tspan>
<tspan x="10" y="202">  │ ├── strip-ansi@3.0.1 </tspan>
<tspan x="10" y="218">  │ └── supports-color@2.0.0 </tspan>
<tspan x="10" y="234">  ├── diff@3.2.0 </tspan>
<tspan x="10" y="250">  ├─┬ fs-extra@2.1.2 </tspan>
<tspan x="10" y="266">  │ ├── graceful-fs@4.1.11 </tspan>
<tspan x="10" y="282">  │ └── jsonfile@2.4.0 </tspan>
<tspan x="10" y="298">  ├── json-stringify-safe@5.0.1 </tspan>
<tspan x="10" y="314">  ├── lodash@4.17.4 </tspan>
<tspan x="10" y="330">  ├─┬ mochawesome-report-generator@1.1.2 </tspan>
<tspan x="10" y="346">  │ ├── opener@1.4.3 </tspan>
<tspan x="10" y="362">  │ ├─┬ react@15.4.2 </tspan>
<tspan x="10" y="378">  │ │ ├─┬ fbjs@0.8.12 </tspan>
<tspan x="10" y="394">  │ │ │ ├── core-js@1.2.7 </tspan>
<tspan x="10" y="410">  │ │ │ ├─┬ isomorphic-fetch@2.2.1 </tspan>
<tspan x="10" y="426">  │ │ │ │ ├─┬ node-fetch@1.6.3 </tspan>
<tspan x="10" y="442">  │ │ │ │ │ ├─┬ encoding@0.1.12 </tspan>
<tspan x="10" y="458">  │ │ │ │ │ │ └── iconv-lite@0.4.15 </tspan>
<tspan x="10" y="474">  │ │ │ │ │ └── is-stream@1.1.0 </tspan>
<tspan x="10" y="490">  │ │ │ │ └── whatwg-fetch@2.0.3 </tspan>
<tspan x="10" y="506">  │ │ │ ├─┬ promise@7.1.1 </tspan>
<tspan x="10" y="522">  │ │ │ │ └── asap@2.0.5 </tspan>
<tspan x="10" y="538">  │ │ │ ├── setimmediate@1.0.5 </tspan>
<tspan x="10" y="554">  │ │ │ └── ua-parser-js@0.7.12 </tspan>
<tspan x="10" y="570">  │ │ ├─┬ loose-envify@1.3.1 </tspan>
<tspan x="10" y="586">  │ │ │ └── js-tokens@3.0.1 </tspan>
<tspan x="10" y="602">  │ │ └── object-assign@4.1.1 </tspan>
<tspan x="10" y="618">  │ ├── react-dom@15.4.2 </tspan>
<tspan x="10" y="634">  │ ├── tcomb@3.2.20 </tspan>
<tspan x="10" y="650">  │ ├── tcomb-validation@3.3.0 </tspan>
<tspan x="10" y="666">  │ ├── validator@7.0.0 </tspan>
<tspan x="10" y="682">  │ └─┬ yargs@6.6.0 </tspan>
<tspan x="10" y="698">  │   ├── camelcase@3.0.0 </tspan>
<tspan x="10" y="714">  │   ├─┬ cliui@3.2.0 </tspan>
<tspan x="10" y="730">  │   │ └── wrap-ansi@2.1.0 </tspan>
<tspan x="10" y="746">  │   ├── decamelize@1.2.0 </tspan>
<tspan x="10" y="762">  │   ├── get-caller-file@1.0.2 </tspan>
<tspan x="10" y="778">  │   ├─┬ os-locale@1.4.0 </tspan>
<tspan x="10" y="794">  │   │ └─┬ lcid@1.0.0 </tspan>
<tspan x="10" y="810">  │   │   └── invert-kv@1.0.0 </tspan>
<tspan x="10" y="826">  │   ├─┬ read-pkg-up@1.0.1 </tspan>
<tspan x="10" y="842">  │   │ ├─┬ find-up@1.1.2 </tspan>
<tspan x="10" y="858">  │   │ │ ├── path-exists@2.1.0 </tspan>
<tspan x="10" y="874">  │   │ │ └─┬ pinkie-promise@2.0.1 </tspan>
<tspan x="10" y="890">  │   │ │   └── pinkie@2.0.4 </tspan>
<tspan x="10" y="906">  │   │ └─┬ read-pkg@1.1.0 </tspan>
<tspan x="10" y="922">  │   │   ├─┬ load-json-file@1.1.0 </tspan>
<tspan x="10" y="938">  │   │   │ ├─┬ parse-json@2.2.0 </tspan>
<tspan x="10" y="954">  │   │   │ │ └─┬ error-ex@1.3.1 </tspan>
<tspan x="10" y="970">  │   │   │ │   └── is-arrayish@0.2.1 </tspan>
<tspan x="10" y="986">  │   │   │ ├── pify@2.3.0 </tspan>
<tspan x="10" y="1002">  │   │   │ └─┬ strip-bom@2.0.0 </tspan>
<tspan x="10" y="1018">  │   │   │   └── is-utf8@0.2.1 </tspan>
<tspan x="10" y="1034">  │   │   ├─┬ normalize-package-data@2.3.6 </tspan>
<tspan x="10" y="1050">  │   │   │ ├── hosted-git-info@2.4.1 </tspan>
<tspan x="10" y="1066">  │   │   │ ├─┬ is-builtin-module@1.0.0 </tspan>
<tspan x="10" y="1082">  │   │   │ │ └── builtin-modules@1.1.1 </tspan>
<tspan x="10" y="1098">  │   │   │ ├── semver@5.3.0 </tspan>
<tspan x="10" y="1114">  │   │   │ └─┬ validate-npm-package-license@3.0.1 </tspan>
<tspan x="10" y="1130">  │   │   │   ├─┬ spdx-correct@1.0.2 </tspan>
<tspan x="10" y="1146">  │   │   │   │ └── spdx-license-ids@1.2.2 </tspan>
<tspan x="10" y="1162">  │   │   │   └── spdx-expression-parse@1.0.4 </tspan>
<tspan x="10" y="1178">  │   │   └── path-type@1.1.0 </tspan>
<tspan x="10" y="1194">  │   ├── require-directory@2.1.1 </tspan>
<tspan x="10" y="1210">  │   ├── require-main-filename@1.0.1 </tspan>
<tspan x="10" y="1226">  │   ├── set-blocking@2.0.0 </tspan>
<tspan x="10" y="1242">  │   ├─┬ string-width@1.0.2 </tspan>
<tspan x="10" y="1258">  │   │ ├── code-point-at@1.1.0 </tspan>
<tspan x="10" y="1274">  │   │ └─┬ is-fullwidth-code-point@1.0.0 </tspan>
<tspan x="10" y="1290">  │   │   └── number-is-nan@1.0.1 </tspan>
<tspan x="10" y="1306">  │   ├── which-module@1.0.0 </tspan>
<tspan x="10" y="1322">  │   ├── y18n@3.2.1 </tspan>
<tspan x="10" y="1338">  │   └── yargs-parser@4.2.1 </tspan>
<tspan x="10" y="1354">  └── uuid@3.0.1</tspan>
</text>
</svg>
